Coordinates
version=1
nRows=9
nColumns=36
inDegrees=yes

Units are S.I. units (second, meters, Newtons, ...)
If the header above contains a line with 'inDegrees', this indicates whether rotational values are in degrees (yes) or radians (no).

endheader
time	pelvis_tilt	pelvis_list	pelvis_rotation	pelvis_tx	pelvis_ty	pelvis_tz	hip_flexion_r	hip_adduction_r	hip_rotation_r	knee_angle_r	knee_angle_r_beta	ankle_angle_r	subtalar_angle_r	mtp_angle_r	hip_flexion_l	hip_adduction_l	hip_rotation_l	knee_angle_l	knee_angle_l_beta	ankle_angle_l	subtalar_angle_l	mtp_angle_l	lumbar_extension	lumbar_bending	lumbar_rotation	arm_flex_r	arm_add_r	arm_rot_r	elbow_flex_r	pro_sup_r	arm_flex_l	arm_add_l	arm_rot_l	elbow_flex_l	pro_sup_l
      2.88333330	    -17.24651075	      2.22319964	     -4.47995071	      0.76490008	      0.69630504	     -0.03691956	     72.58260205	     -5.61128131	      9.97978662	     80.70480803	      1.40856462	     32.29947140	     -1.00810100	     -7.49999987	     70.68683467	     -9.58085534	      0.96307088	     78.65923990	      1.37286272	     31.42631070	      2.24396965	     -7.49999987	    -34.99365465	     -5.17827800	      1.46314505	     21.95056526	    -17.07738649	      2.59513607	     32.47173080	     68.91688861	     19.30673861	    -17.39504324	     -0.52234620	     49.59276750	     84.61808944
      2.90000000	    -18.07087792	      2.39747448	     -4.42564563	      0.78187048	      0.68686512	     -0.03107069	     74.22361361	     -5.92588090	     10.18922441	     84.75003438	      1.47916714	     36.05398496	     -0.17328851	     -7.49999987	     72.14131132	     -9.69698099	      1.07538810	     82.61579109	      1.44191757	     35.73340798	      3.79234001	     -7.49999987	    -34.57731883	     -5.43449382	      1.95376451	     29.04166850	    -15.31907486	      1.58463075	     33.75309521	     68.57347040	     27.05784105	    -16.63475716	      1.69930304	     52.98782503	     84.85273676
      2.91666670	    -20.43066736	      2.66701983	     -4.22051327	      0.76023831	      0.67465372	     -0.01348005	     77.56307412	     -5.75436189	      9.98755608	     87.60559186	      1.52900602	     37.98344602	      0.01080211	     -7.49999987	     75.41508638	    -10.55021537	      0.86402370	     85.65807669	      1.49501547	     38.26512939	      5.25570239	     -7.49999987	    -32.80015795	     -6.72092082	      3.44911311	     38.92468015	    -12.85821068	     -3.08776581	     36.67895011	     68.23720412	     40.76887863	    -17.16451498	     11.05747925	     54.36619256	     86.84502830
      2.93333330	    -22.66766583	      2.48891628	     -4.22259985	      0.76948355	      0.66505746	     -0.02138955	     80.47253882	     -5.56168882	      9.14188064	     89.58410562	      1.56353760	     39.57551665	      0.67455682	     -7.49999987	     78.45180976	    -11.43076256	      1.13574314	     88.04535546	      1.53668134	     40.06942743	      6.01395899	     -7.49999987	    -30.77351882	     -6.73460766	      3.81370164	     47.31625269	    -11.31882778	     -0.62508474	     39.36626210	     69.60534385	     50.24596644	    -15.88973559	     15.49188187	     57.78945245	     88.14846432
      2.95000000	    -24.41958949	      2.56494181	     -4.20768114	      0.78946548	      0.65848129	     -0.02285947	     82.44100270	     -5.56774235	      8.70882174	     91.14239448	      1.59073487	     41.07774124	      1.43209560	     -7.49999987	     80.24914692	    -11.90046746	      1.19560778	     89.82064170	      1.56766593	     41.26902342	      6.19267007	     -7.49999987	    -28.25038741	     -7.12899172	      4.06104980	     55.62540949	    -10.71898140	      5.43310069	     41.67611192	     74.82193353	     60.98282002	    -13.97898007	     22.66734497	     60.75613753	     89.38816543
      2.96666670	    -26.04338635	      2.64581352	     -3.97803986	      0.77127643	      0.66881012	     -0.02725395	     84.01788412	     -5.84701840	      8.31079118	     91.46496935	      1.59636487	     41.46376350	      1.78482855	     -7.49999987	     81.94251809	    -12.00437489	      1.04892268	     90.63934549	      1.58195501	     41.60778842	      5.96057850	     -7.49999987	    -26.54540992	     -6.98333758	      3.74107265	     66.60871149	    -10.77573153	     12.66621842	     42.99395448	     80.29360808	     72.72080916	    -13.01492030	     31.87556998	     63.18594438	     89.57241312
      2.98333330	    -27.55426768	      2.71572177	     -3.61521381	      0.74604577	      0.66117055	     -0.03067753	     86.24202839	     -6.34912245	      7.77545318	     91.76300938	      1.60156665	     40.94506879	      1.93569939	     -7.49999987	     84.44464404	    -11.91808830	      0.82545550	     91.53064986	      1.59751121	     40.81970671	      4.70637022	     -7.49999987	    -24.59550716	     -6.48553900	      2.89897365	     78.88844460	     -8.94108853	     19.88712296	     44.32471010	     86.14659675	     86.24879848	    -11.76154697	     41.46111347	     64.16212451	     90.56510104
      3.00000000	    -28.38097354	      2.62495273	     -3.39770794	      0.76281199	      0.66807939	     -0.03469176	     86.95043297	     -6.89177282	      7.10024038	     91.29620577	      1.59341939	     40.52190382	      2.49986484	     -7.49999987	     85.49912432	    -11.51549384	      0.83958417	     91.52361125	      1.59738836	     39.90157312	      3.16889978	     -7.49999987	    -21.53507324	     -5.42673961	      2.72580224	     86.42382909	     -5.69696030	     20.09845331	     49.97706891	     99.24939834	     93.00514561	     -9.74781397	     42.43805923	     66.93022096	     90.91095158
      3.01666670	    -28.41489413	      2.65529626	     -3.25298791	      0.77730542	      0.69094566	     -0.03373675	     85.58052412	     -7.49840783	      6.66223113	     89.43786116	      1.56098515	     39.97929360	      3.08941816	     -7.49999987	     84.18389675	    -10.82263018	      0.66857257	     89.83121981	      1.56785056	     39.08789990	      1.91018233	     -7.49999987	    -20.29865617	     -4.74212641	      5.48748630	     92.35256801	     -7.84282772	     22.08341051	     58.55422063	    101.79384985	     93.28387770	     -4.30381225	     34.14515737	     73.06821508	     98.46413623
